<?xml version="1.0" encoding="UTF-8" standalone="no"?>
<svg width="21px" height="18px" viewBox="0 0 21 18" version="1.1" xmlns="http://www.w3.org/2000/svg" xmlns:xlink="http://www.w3.org/1999/xlink">
    <!-- Generator: Sketch 40.3 (33839) - http://www.bohemiancoding.com/sketch -->
    <title>medium</title>
    <desc>Created with Sketch.</desc>
    <defs></defs>
    <g id="RF---Homepage" stroke="none" stroke-width="1" fill="none" fill-rule="evenodd">
        <g id="RF-Homepage" transform="translate(-41.000000, -36.000000)" fill="#1B1A18">
            <g id="::-Hero" transform="translate(-98.000000, -121.000000)">
                <g id="social" transform="translate(139.000000, 156.000000)">
                    <g id="medium" transform="translate(0.000000, 1.000000)">
                        <g id="Medium-black">
                            <g id="Icons">
                                <g id="Black">
                                    <g id="Medium">
                                        <path d="M20.7699906,3.30208989 C20.7660283,3.29885393 20.7628585,3.29460674 20.7579057,3.29217978 L20.7507736,3.28853933 L14.4963396,0.0960674157 C14.4541415,0.0744269661 14.4097642,0.0598651686 14.3647924,0.0481348314 C14.3083302,0.0333707865 14.2506792,0.0242696629 14.1928302,0.0242696629 C13.9533113,0.0242696629 13.7149811,0.147033708 13.5858113,0.361011236 L9.98510376,6.33458425 L14.5038679,13.8306742 L20.7892076,3.40402247 C20.8100094,3.36923595 20.8001038,3.32635955 20.7699906,3.30208989" id="Fill-53"></path>
                                        <polyline id="Fill-54" points="8.00179244 4.97386517 8.00179244 11.773618 13.9222076 14.7955955 8.00179244 4.97386517"></polyline>
                                        <path d="M14.8117358,15.2496405 L19.6851226,17.7370786 C20.319283,18.0608764 20.8333868,17.8341573 20.8333868,17.2310562 L20.8333868,5.26024719 L14.8117358,15.2496405" id="Fill-55"></path>
                                        <path d="M6.97398113,3.31179775 L0.865556602,0.193752809 C0.755207548,0.13752809 0.650207548,0.110831461 0.555113208,0.110831461 C0.287660377,0.110831461 0.10004717,0.322179775 0.10004717,0.676719099 L0.10004717,14.1403146 C0.10004717,14.5007191 0.358386792,14.9274607 0.674179244,15.0886517 L6.05433964,17.8347641 C6.19222643,17.9051461 6.32357548,17.9385169 6.44224529,17.9385169 C6.77666036,17.9385169 7.01122643,17.674382 7.01122643,17.2310562 L7.01122643,3.37307865 C7.01122643,3.34719101 6.99676416,3.32332584 6.97398113,3.31179775" id="Fill-56"></path>
                                    </g>
                                </g>
                            </g>
                        </g>
                    </g>
                </g>
            </g>
        </g>
    </g>
</svg>