<svg width="22" height="18" viewBox="0 0 22 18" version="1.1" xmlns="http://www.w3.org/2000/svg" xmlns:xlink="http://www.w3.org/1999/xlink"><title>twitter</title><desc>Created with Sketch.</desc><g id="RF---Homepage" stroke="none" stroke-width="1" fill="none" fill-rule="evenodd"><g id="RF-Homepage" transform="translate(-86.000000, -36.000000)" fill="#000"><g id="::-Hero" transform="translate(-98.000000, -121.000000)"><g id="social" transform="translate(139.000000, 156.000000)"><g id="twitter" transform="translate(45.000000, 1.000000)"><g id="Twitter-black"><g id="Icons"><g id="Black"><path d="M22,2.13087735 C21.1916416,2.4923079 20.3213005,2.7367281 19.4083464,2.84593725 C20.3406702,2.28429045 21.0560542,1.39371615 21.3930855,0.33282765 C20.5201622,0.85287105 19.5555557,1.2312027 18.5250927,1.4340195 C17.7038212,0.55124595 16.5300227,0 15.230968,0 C12.7400364,0 10.7191407,2.0346696 10.7191407,4.5438786 C10.7191407,4.9001085 10.7578799,5.2459371 10.8353584,5.57876475 C7.08411092,5.3889489 3.75899517,3.5817984 1.53149012,0.82946925 C1.14280696,1.5029253 0.920701833,2.28429045 0.920701833,3.1163598 C0.920701833,4.69209105 1.71743871,6.0832071 2.92868446,6.8983749 C2.19005692,6.87627315 1.49275088,6.66955575 0.883254167,6.33152745 L0.883254167,6.3874323 C0.883254167,8.589816 2.43927933,10.426869 4.50537083,10.8429034 C4.12701758,10.9495125 3.72800358,11.0028168 3.31607696,11.0028168 C3.02553258,11.0028168 2.74144521,10.9755148 2.46639663,10.9222101 C3.04102838,12.7267605 4.70681475,14.04117 6.68251467,14.0762732 C5.138111,15.2957745 3.19081996,16.0225353 1.07694996,16.0225353 C0.712801375,16.0225353 0.352526625,16.0017336 0,15.9601302 C1.99765225,17.2472373 4.37107458,18 6.91882354,18 C15.2219288,18 19.7608735,11.0769233 19.7608735,5.07172275 C19.7608735,4.87410615 19.7569996,4.67648955 19.7492515,4.48277355 C20.6312145,3.8418201 21.3969594,3.04225335 22,2.13087735" id="Twitter"/></g></g></g></g></g></g></g></g></svg>