<svg width="17" height="22" viewBox="0 0 17 22" version="1.1" xmlns="http://www.w3.org/2000/svg" xmlns:xlink="http://www.w3.org/1999/xlink"><title>yelp</title><desc>Created with Sketch.</desc><g id="RF---Homepage" stroke="none" stroke-width="1" fill="none" fill-rule="evenodd"><g id="RF-Homepage" transform="translate(-171.000000, -34.000000)" fill-rule="nonzero" fill="#000"><g id="::-Hero" transform="translate(0.000000, -48.000000)"><g id="social" transform="translate(41.000000, 82.000000)"><g id="yelp" transform="translate(130.000000, 0.000000)"><path d="M8.56040283,16.1911817 L8.56040283,17.7493727 C8.55210556,20.1377805 8.52721152,21.3851513 8.48572293,21.4914851 C8.38614899,21.7532278 8.1745552,21.916818 7.85094082,21.9822533 C7.40285993,22.055869 6.64983427,21.9004586 5.59186457,21.5160234 C4.53389487,21.1315876 3.85969848,20.7676005 3.56927541,20.4240623 C3.46140345,20.3013707 3.39087219,20.1541399 3.35768088,19.9823708 C3.3493836,19.8842167 3.36597889,19.7778837 3.40746822,19.663371 C3.44065953,19.5815763 3.58172206,19.3893583 3.8306558,19.0867179 C4.07958954,18.7840767 4.83054089,17.9006929 6.0835091,16.4365658 C6.09180711,16.4365658 6.34074085,16.150284 6.83031106,15.5777204 C6.95477831,15.4223107 7.11865982,15.3221119 7.32195634,15.2771247 C7.52525211,15.2321375 7.73062295,15.2464514 7.93806811,15.3200671 C8.13721525,15.4018618 8.29279875,15.520464 8.40481934,15.6758745 C8.51683919,15.8312842 8.56870085,16.0030533 8.56040283,16.1911817 Z M6.70584457,13.1116073 C6.68095052,13.5614785 6.46520809,13.8477604 6.0586158,13.9704528 L4.56501112,14.4489518 C2.28311589,15.1687462 1.07163701,15.5286437 0.930573738,15.5286437 C0.640150668,15.5122843 0.416110226,15.3650536 0.258452413,15.0869515 C0.15887847,14.8824644 0.0883472066,14.5757344 0.046857878,14.1667602 C-0.0195240069,13.5451199 -0.0153753715,12.8641778 0.0593045279,12.1239345 C0.133985171,11.383692 0.258452413,10.874519 0.432706255,10.5964169 C0.606960097,10.3183147 0.839298553,10.1874426 1.12972162,10.203802 C1.23759284,10.203802 2.07567073,10.5187116 3.64395531,11.1485316 C4.23309946,11.3857368 4.71022303,11.5779547 5.07532599,11.7251855 L6.12084905,12.1423387 C6.31169892,12.2159544 6.4589844,12.3406908 6.56270698,12.5165501 C6.66642955,12.6924087 6.71414184,12.8907608 6.70584457,13.1116073 Z M16.9868212,16.7555657 C16.9287366,17.1972572 16.5491119,17.8557057 15.8479479,18.7309098 C15.1467832,19.6061146 14.5846074,20.1255114 14.1614191,20.2891015 C13.8544007,20.4036142 13.5930196,20.3749857 13.3772772,20.2032166 C13.2611079,20.1214219 12.4977099,18.9476661 11.0870839,16.6819507 L10.5020884,15.7372203 C10.3859192,15.5654512 10.3382069,15.3773235 10.3589515,15.1728364 C10.3796962,14.9683493 10.4605998,14.7802208 10.6016623,14.6084517 C10.8920854,14.2567346 11.2364445,14.1504008 11.6347387,14.2894526 C11.6430368,14.2976316 12.1367556,14.4612217 13.115896,14.7802208 C14.8003498,15.3200671 15.8043843,15.6452012 16.1279987,15.7556244 C16.4516131,15.8660469 16.6466108,15.9498871 16.7129935,16.0071435 C16.9453319,16.1870915 17.0366078,16.4365658 16.9868212,16.7555657 Z M8.62263683,9.00141841 C8.66412541,9.83572551 8.44008497,10.3346734 7.95051476,10.4982635 C7.46924182,10.6373146 6.99626764,10.3469426 6.53159072,9.62714819 L1.82673699,2.29015484 C1.76035436,2.00387303 1.83918364,1.75030924 2.06322408,1.52946275 C2.40343375,1.17774562 3.26433063,0.811713849 4.64591471,0.431367437 C6.0274988,0.0510217583 6.95892694,-0.0778048739 7.44019988,0.0448875407 C7.77211154,0.126682239 7.97540806,0.310720495 8.05008796,0.597002307 C8.07498126,0.744233058 8.16625719,1.9936486 8.32391574,4.34524894 C8.48157356,6.69685001 8.5811475,8.24890601 8.62263683,9.00141841 Z M16.862354,10.3264937 C16.8872473,10.6454935 16.7793761,10.8867882 16.5387396,11.0503783 C16.4142724,11.132173 15.0492843,11.4838909 12.443774,12.1055311 C11.8878219,12.2282236 11.5102715,12.3222874 11.3111244,12.3877228 L11.323571,12.3631844 C11.1327219,12.4122618 10.941872,12.3959024 10.7510229,12.3141077 C10.560173,12.232313 10.4066638,12.1014417 10.2904946,11.9214929 C10.0415609,11.537057 10.0415609,11.1812497 10.2904946,10.8540709 C10.2987926,10.8458912 10.6099604,10.4287373 11.2239978,9.60260985 C12.2612228,8.20391882 12.8835576,7.36961172 13.0910027,7.09968928 C13.2984479,6.82976612 13.4395104,6.6702662 13.5141911,6.62118953 C13.7465295,6.46577909 14.0162079,6.45760013 14.3232263,6.59665119 C14.7215213,6.78477892 15.2318354,7.33075947 15.8541709,8.2345921 C16.4765064,9.13842473 16.8125674,9.82345634 16.862354,10.2896862 L16.862354,10.3264937 Z" id="Shape"/></g></g></g></g></g></svg>